HIERARCHY
ROOT Hips
{
 OFFSET 0.000000 0.000000 0.000000
 CHANNELS 6 Xposition Yposition Zposition Yrotation Xrotation Zrotation
 JOINT Chest
 {
  OFFSET 0.000000 9.585900 0.002600
  CHANNELS 3 Yrotation Xrotation Zrotation
  JOINT Chest2
  {
   OFFSET 0.000000 9.601200 -0.005300
   CHANNELS 3 Yrotation Xrotation Zrotation
   JOINT Chest3
   {
    OFFSET 0.000000 9.561800 0.000000
    CHANNELS 3 Yrotation Xrotation Zrotation
    JOINT Chest4
    {
     OFFSET 0.000000 9.552100 0.000000
     CHANNELS 3 Yrotation Xrotation Zrotation
     JOINT Neck
     {
      OFFSET 0.000000 14.453000 0.000000
      CHANNELS 3 Yrotation Xrotation Zrotation
      JOINT Head
      {
       OFFSET 0.000000 8.936500 -0.011300
       CHANNELS 3 Yrotation Xrotation Zrotation
       End Site
       {
        OFFSET 0.000000 17.073600 -0.006000
       }
      }
     }
     JOINT RightCollar
     {
      OFFSET -2.921100 9.558500 0.000000
      CHANNELS 3 Yrotation Xrotation Zrotation
      JOINT RightShoulder
      {
       OFFSET -13.519700 0.000000 0.000000
       CHANNELS 3 Yrotation Xrotation Zrotation
       JOINT RightElbow
       {
        OFFSET 0.000000 -29.696600 0.000000
        CHANNELS 3 Yrotation Xrotation Zrotation
        JOINT RightWrist
        {
         OFFSET 0.000000 -24.004700 0.000000
         CHANNELS 3 Yrotation Xrotation Zrotation
         End Site
         {
          OFFSET 0.000000 -17.728500 0.000000
         }
        }
       }
      }
     }
     JOINT LeftCollar
     {
      OFFSET 2.921100 9.558500 0.000000
      CHANNELS 3 Yrotation Xrotation Zrotation
      JOINT LeftShoulder
      {
       OFFSET 13.519700 0.000000 0.000000
       CHANNELS 3 Yrotation Xrotation Zrotation
       JOINT LeftElbow
       {
        OFFSET 0.000000 -29.696600 0.000000
        CHANNELS 3 Yrotation Xrotation Zrotation
        JOINT LeftWrist
        {
         OFFSET 0.000000 -24.004700 0.000000
         CHANNELS 3 Yrotation Xrotation Zrotation
         End Site
         {
          OFFSET 0.000000 -17.728500 0.000000
         }
        }
       }
      }
     }
    }
   }
  }
 }
 JOINT RightHip
 {
  OFFSET -7.771700 -0.012900 -0.001300
  CHANNELS 3 Yrotation Xrotation Zrotation
  JOINT RightKnee
  {
   OFFSET 0.000000 -40.869800 0.001200
   CHANNELS 3 Yrotation Xrotation Zrotation
   JOINT RightAnkle
   {
    OFFSET 0.000000 -39.717900 0.002100
    CHANNELS 3 Yrotation Xrotation Zrotation
    JOINT RightToe
    {
     OFFSET 0.000000 -4.965400 11.033500
     CHANNELS 3 Yrotation Xrotation Zrotation
     End Site
     {
      OFFSET 0.000000 -1.423100 5.872300
     }
    }
   }
  }
 }
 JOINT LeftHip
 {
  OFFSET 7.771700 -0.012900 -0.001300
  CHANNELS 3 Yrotation Xrotation Zrotation
  JOINT LeftKnee
  {
   OFFSET 0.000000 -40.869800 0.001200
   CHANNELS 3 Yrotation Xrotation Zrotation
   JOINT LeftAnkle
   {
    OFFSET 0.000000 -39.717900 0.002100
    CHANNELS 3 Yrotation Xrotation Zrotation
    JOINT LeftToe
    {
     OFFSET 0.000000 -4.965400 11.033500
     CHANNELS 3 Yrotation Xrotation Zrotation
     End Site
     {
      OFFSET 0.000000 -1.423100 5.872300
     }
    }
   }
  }
 }
}
MOTION
Frames: 11
Frame Time: 0.008333
-123.133828 61.954844 19.741418 176.074766 -52.797488 -0.765193 3.864092 27.546952 0.916471 0.566344 4.839538 0.161011 0.872271 7.604500 0.298069 2.798377 22.262620 1.232135 1.145572 14.371090 0.745198 1.823496 -9.171510 1.024673 7.064118 6.632998 4.714629 -4.289293 -11.724676 -12.443024 -131.595821 -65.106274 160.418534 20.965504 16.055201 16.555059 -9.972775 4.410306 -1.337475 -5.419730 -10.005105 15.567391 136.790531 -79.108004 -154.619073 7.534530 -3.903182 -2.118529 4.190352 -14.047953 -5.347778 -2.918308 58.315543 -7.259773 -0.221322 -6.558922 9.637883 0.326209 -0.778316 0.154289 -3.995250 -11.215265 2.887715 29.554967 74.896809 31.217569 0.692544 -10.673717 -5.206424 0.282306 0.828565 0.125209
-123.134648 61.954908 19.740891 176.086616 -52.787015 -0.771410 3.867016 27.550608 0.910566 0.566484 4.838140 0.161776 0.876844 7.608140 0.295259 2.806650 22.263545 1.229283 1.148332 14.374178 0.747203 1.820428 -9.167940 1.029153 7.055552 6.637576 4.712574 -4.383673 -11.729870 -12.420841 -131.871181 -65.059581 160.601161 20.896592 15.897341 16.209319 -9.964756 4.418260 -1.337119 -5.282791 -10.007909 15.521309 137.170022 -79.048920 -154.893555 7.660660 -4.113841 -1.961744 4.186616 -14.060707 -5.355136 -2.916861 58.325507 -7.249457 -0.226202 -6.571354 9.627156 0.330839 -0.778509 0.157634 -4.000190 -11.230218 2.883017 29.570375 74.899517 31.235158 0.694818 -10.665338 -5.205072 0.278658 0.820558 0.123700
-123.135445 61.953094 19.741296 176.103422 -52.764166 -0.782557 3.869344 27.545593 0.905252 0.567395 4.833969 0.161073 0.881794 7.612587 0.293721 2.816888 22.263006 1.226963 1.147661 14.376596 0.752600 1.821583 -9.161331 1.034999 7.041765 6.628143 4.723277 -4.479051 -11.721705 -12.410439 -132.185216 -65.010555 160.829171 20.824623 15.721538 15.888796 -9.975960 4.409835 -1.318199 -5.129610 -9.990726 15.454446 137.659193 -78.992656 -155.271521 7.804427 -4.339725 -1.827855 4.180056 -14.085132 -5.359950 -2.899936 58.334864 -7.231740 -0.236429 -6.589989 9.621135 0.332054 -0.781458 0.157081 -4.006853 -11.258120 2.879458 29.581537 74.903541 31.253559 0.694121 -10.666464 -5.208091 0.281312 0.821321 0.124550
-123.135709 61.952746 19.740118 176.112976 -52.754105 -0.790812 3.875954 27.547963 0.903576 0.573074 4.835335 0.157202 0.881467 7.611779 0.296501 2.825452 22.262865 1.225554 1.145257 14.377846 0.759052 1.852248 -9.098187 1.016611 7.031437 6.623743 4.730763 -4.574501 -11.711554 -12.400646 -132.534467 -64.958298 161.092859 20.747944 15.521961 15.593013 -9.970924 4.414078 -1.324076 -4.992862 -9.974985 15.406744 138.248356 -78.934297 -155.749745 7.969653 -4.573609 -1.716526 4.178775 -14.095743 -5.361636 -2.886776 58.342055 -7.216582 -0.239664 -6.604021 9.619802 0.327715 -0.781975 0.155228 -4.009856 -11.271397 2.880025 29.591913 74.907621 31.268921 0.689644 -10.664419 -5.208665 0.284641 0.816998 0.125467
-123.135523 61.951624 19.739100 176.115118 -52.739701 -0.796017 3.890649 27.544289 0.904680 0.572652 4.832297 0.154904 0.884752 7.613434 0.296812 2.829810 22.261639 1.222466 1.142108 14.372866 0.776554 1.860100 -9.080218 1.013829 7.028767 6.630385 4.736223 -4.669789 -11.708880 -12.388649 -132.893752 -64.904056 161.364467 20.667866 15.291980 15.315966 -9.973718 4.413523 -1.311080 -4.833903 -9.947388 15.337700 138.857258 -78.865679 -156.257426 8.146015 -4.814291 -1.626198 4.186985 -14.110954 -5.362262 -2.891139 58.347306 -7.210728 -0.235997 -6.618883 9.616193 0.322896 -0.780715 0.154758 -4.011538 -11.288582 2.884674 29.610533 74.911282 31.289656 0.686216 -10.664955 -5.211835 0.287174 0.814678 0.127619
-123.135897 61.950986 19.737282 176.133400 -52.729589 -0.810230 3.893555 27.544401 0.900373 0.570752 4.825871 0.152631 0.889133 7.615723 0.297469 2.834316 22.258522 1.220681 1.148036 14.389079 0.780005 1.858257 -9.076204 1.026284 7.022148 6.659458 4.714948 -4.720163 -11.731571 -12.346951 -133.276739 -64.868247 161.623347 20.582887 15.036268 15.042847 -9.953812 4.429321 -1.329963 -4.695400 -9.925165 15.302986 139.404624 -78.784086 -156.712770 8.314301 -5.063007 -1.560353 4.179281 -14.122213 -5.365744 -2.887984 58.356629 -7.201788 -0.237728 -6.632993 9.612209 0.322808 -0.778608 0.154485 -4.023034 -11.300435 2.885127 29.623803 74.913444 31.303563 0.683742 -10.669132 -5.214668 0.289877 0.817024 0.129944
-123.136838 61.948472 19.736546 176.154368 -52.705600 -0.823315 3.887267 27.528309 0.886905 0.570820 4.818163 0.155376 0.891660 7.616291 0.291674 2.840525 22.253109 1.216326 1.155531 14.409961 0.785575 1.870109 -9.037316 1.034223 7.017089 6.677543 4.723410 -4.827185 -11.727244 -12.338967 -133.594667 -64.795174 161.884004 20.493340 14.764921 14.763891 -9.950817 4.441335 -1.315869 -4.520179 -9.892419 15.237596 139.897315 -78.688368 -157.117818 8.463279 -5.312314 -1.521092 4.172508 -14.147121 -5.371241 -2.894608 58.365545 -7.205410 -0.234661 -6.654437 9.607289 0.318557 -0.769826 0.158978 -4.037195 -11.329192 2.885467 29.628958 74.919426 31.307277 0.678713 -10.672541 -5.216359 0.295199 0.819327 0.133319
-123.138546 61.948076 19.733888 176.168485 -52.697393 -0.825358 3.885409 27.521974 0.870728 0.563800 4.816187 0.163156 0.899411 7.609056 0.280214 2.844745 22.246383 1.212002 1.164213 14.435394 0.792475 1.904545 -8.946906 1.037434 7.011585 6.704709 4.735477 -4.933249 -11.727454 -12.336223 -133.872387 -64.718966 162.113772 20.395947 14.481430 14.475272 -9.947975 4.463749 -1.304389 -4.325025 -9.863307 15.176170 140.396233 -78.577180 -157.535328 8.590963 -5.555610 -1.491100 4.174202 -14.156516 -5.380242 -2.907824 58.377590 -7.214663 -0.236352 -6.668855 9.605102 0.319245 -0.773808 0.161061 -4.055117 -11.339034 2.876729 29.640757 74.921417 31.308895 0.681733 -10.669971 -5.214413 0.292661 0.816907 0.132205
-123.139120 61.947501 19.731313 176.173404 -52.686959 -0.826956 3.896768 27.508217 0.867032 0.564436 4.810208 0.161917 0.900338 7.600243 0.278430 2.848758 22.235801 1.207487 1.184818 14.456528 0.779727 1.907299 -8.874278 1.071268 6.999457 6.745098 4.752614 -4.993619 -11.736327 -12.335383 -134.145291 -64.657417 162.308500 20.286748 14.191663 14.170879 -9.941798 4.495553 -1.311399 -4.124041 -9.833846 15.132168 141.001541 -78.462945 -158.056591 8.699614 -5.802731 -1.440464 4.179948 -14.167344 -5.382825 -2.904975 58.384600 -7.207685 -0.246571 -6.678788 9.603994 0.322958 -0.776729 0.159781 -4.060949 -11.349346 2.874992 29.612753 74.926767 31.279914 0.688014 -10.670650 -5.211389 0.294004 0.817174 0.129696
-123.138022 61.947270 19.728570 176.176177 -52.677307 -0.837339 3.932677 27.481604 0.871232 0.566073 4.791833 0.159119 0.887083 7.607356 0.290921 2.853346 22.221717 1.202973 1.193977 14.480118 0.783571 1.917881 -8.812354 1.086333 6.987344 6.793853 4.777252 -5.010332 -11.746260 -12.331999 -134.443931 -64.607582 162.499647 20.166805 13.902595 13.839318 -9.930290 4.540477 -1.321762 -3.931204 -9.806031 15.087120 141.823955 -78.365576 -158.768289 8.791646 -6.081757 -1.347212 4.184774 -14.177612 -5.374008 -2.907778 58.390700 -7.207222 -0.244251 -6.688074 9.602998 0.319786 -0.780570 0.159249 -4.067697 -11.358474 2.884617 29.583000 74.941828 31.248950 0.705357 -10.682309 -5.211401 0.290202 0.821203 0.128966
-123.137743 61.945524 19.726901 176.180477 -52.654539 -0.845730 3.949848 27.446941 0.872313 0.567272 4.780010 0.157488 0.888327 7.597943 0.288900 2.860608 22.203840 1.197265 1.202733 14.503653 0.791525 1.919981 -8.756737 1.107013 6.975423 6.842702 4.814617 -5.133958 -11.742914 -12.376006 -134.586574 -64.487316 162.638525 20.039278 13.598050 13.462280 -9.915038 4.603388 -1.332661 -3.758187 -9.783524 15.045869 142.906945 -78.288933 -159.698734 8.863762 -6.425022 -1.200140 4.187197 -14.199600 -5.370660 -2.896421 58.393177 -7.194714 -0.245255 -6.703785 9.598131 0.317708 -0.780316 0.158521 -4.079247 -11.382001 2.893025 29.589492 74.947106 31.248777 0.708305 -10.689015 -5.211773 0.287882 0.825426 0.129398
